# xmcd CD database file
#
# Track frame offsets:
#	150
#	13199
#	26660
#	42824
#	60311
#	73510
#	87786
#	102411
#	120099
#	141103
#	154363
#	167718
#	182100
#	195912
#	212476
#	232500
#	246435
#	264575
#	277262
#	293025
#	311416
#	327677
#
# Disc length: 4538 seconds
#
# Revision: 1
# Processed by: cddbd v1.5.2PL0 Copyright (c) Steve Scherf et al.
# Submitted via: CDValet v3.40 - Copyright (c) 1996 - 1998 Greg Leichner
#
DISCID=3311b816
DTITLE=Bare, Bobby - Bare - Sleeper Wherever I Fall
DYEAR=1900
DGENRE=
TTITLE0=Big Dupree
TTITLE1=Finger On The Button
TTITLE2=The Gambler
TTITLE3=Yard Full Of Rusty Cars
TTITLE4=Greasy Grit Gravy
TTITLE5=Too Many Nights Alone
TTITLE6=Childhood Hero
TTITLE7=February Snow
TTITLE8=This Guitar Is For Sale
TTITLE9=Sing For The Song
TTITLE10=Sleep Tight, Good Night Man
TTITLE11=Hot Afternoon (Arizona Desert)
TTITLE12=What Did It Get Me
TTITLE13=Goin' Up's Easy, Comin' Down's Hard
TTITLE14=The Way I Feel Tonight
TTITLE15=Healin'
TTITLE16=Love Is A Cold Wind
TTITLE17=I'll Feel A Whole Lot Better
TTITLE18=The Last Time
TTITLE19=On A Real Good Night
TTITLE20=Easy As Dreaming
TTITLE21=Rodeo Queen
EXTD=
EXTT0=
EXTT1=
EXTT2=
EXTT3=
EXTT4=
EXTT5=
EXTT6=
EXTT7=
EXTT8=
EXTT9=
EXTT10=
EXTT11=
EXTT12=
EXTT13=
EXTT14=
EXTT15=
EXTT16=
EXTT17=
EXTT18=
EXTT19=
EXTT20=
EXTT21=
PLAYORDER=
